<svg width="345" height="95" xmlns="http://www.w3.org/2000/svg" xmlns:xlink="http://www.w3.org/1999/xlink" xml:space="preserve" overflow="hidden"><g transform="translate(-2959 -1904)"><path d="M3218 1927C3218 1914.3 3228.07 1904 3240.5 1904 3252.93 1904 3263 1914.3 3263 1927 3263 1939.7 3252.93 1950 3240.5 1950 3228.07 1950 3218 1939.7 3218 1927Z" fill="#AFABAB" fill-rule="evenodd"/><path d="M3141 1928.5C3141 1919.39 3148.39 1912 3157.5 1912 3166.61 1912 3174 1919.39 3174 1928.5 3174 1937.61 3166.61 1945 3157.5 1945 3148.39 1945 3141 1937.61 3141 1928.5Z" fill="#AFABAB" fill-rule="evenodd"/><path d="M3077 1930C3077 1923.37 3082.15 1918 3088.5 1918 3094.85 1918 3100 1923.37 3100 1930 3100 1936.63 3094.85 1942 3088.5 1942 3082.15 1942 3077 1936.63 3077 1930Z" fill="#AFABAB" fill-rule="evenodd"/><path d="M3013 1930.5C3013 1925.81 3016.81 1922 3021.5 1922 3026.19 1922 3030 1925.81 3030 1930.5 3030 1935.19 3026.19 1939 3021.5 1939 3016.81 1939 3013 1935.19 3013 1930.5Z" fill="#AFABAB" fill-rule="evenodd"/><text font-family="Times New Roman,Times New Roman_MSFontService,sans-serif" font-weight="400" font-size="28" transform="matrix(1 0 0 1 2991.7 1976)">small</text><text font-family="Times New Roman,Times New Roman_MSFontService,sans-serif" font-weight="400" font-size="28" transform="matrix(1 0 0 1 3215.59 1976)">large</text></g></svg>